<svg xmlns="http://www.w3.org/2000/svg" xmlns:xlink="http://www.w3.org/1999/xlink" width="500" zoomAndPan="magnify" viewBox="0 0 375 374.999991" height="500" preserveAspectRatio="xMidYMid meet" version="1.0"><defs><clipPath id="e4663d172d"><path d="M 45.308594 45.308594 L 329.558594 45.308594 L 329.558594 329.558594 L 45.308594 329.558594 Z M 45.308594 45.308594 " clip-rule="nonzero"/></clipPath></defs><g clip-path="url(#e4663d172d)"><path fill="#000000" d="M 187.433594 45.304688 C 265.925781 45.304688 329.5625 108.941406 329.5625 187.433594 C 329.5625 265.925781 265.925781 329.5625 187.433594 329.5625 C 108.941406 329.5625 45.304688 265.925781 45.304688 187.433594 C 45.304688 108.941406 108.941406 45.304688 187.433594 45.304688 Z M 128.863281 248.59375 L 148.894531 248.59375 L 148.894531 169.234375 L 128.863281 169.234375 Z M 191.410156 206.773438 C 191.410156 194.253906 197.308594 184.21875 210.894531 184.21875 C 224.304688 184.21875 228.648438 195.03125 228.648438 206.773438 L 228.648438 248.605469 L 248.558594 248.605469 L 248.558594 197.476562 C 248.558594 179.3125 239.761719 166.613281 220.578125 166.613281 C 211.871094 166.613281 201.8125 171.175781 197.558594 179.101562 L 191.410156 190.316406 L 191.410156 169.234375 L 172.453125 169.234375 L 172.453125 248.59375 L 191.410156 248.59375 Z M 197.96875 206.773438 L 197.96875 255.152344 L 165.894531 255.152344 L 165.894531 162.675781 L 197.96875 162.675781 L 197.96875 168.578125 C 204.300781 162.90625 212.078125 160.054688 220.578125 160.054688 C 243.382812 160.054688 255.121094 175.683594 255.121094 197.476562 L 255.121094 255.136719 L 222.089844 255.140625 L 222.089844 206.773438 C 222.089844 198.886719 220.351562 190.777344 210.894531 190.777344 C 201.03125 190.777344 197.96875 197.953125 197.96875 206.773438 Z M 138.753906 151.429688 C 145.695312 151.429688 151.199219 145.75 151.199219 138.847656 C 151.199219 131.9375 145.695312 126.273438 138.753906 126.273438 C 131.8125 126.273438 126.308594 131.9375 126.308594 138.847656 C 126.308594 145.75 131.804688 151.429688 138.753906 151.429688 Z M 138.753906 157.988281 C 128.21875 157.988281 119.75 149.34375 119.75 138.847656 C 119.75 128.351562 128.21875 119.714844 138.753906 119.714844 C 149.285156 119.714844 157.757812 128.351562 157.757812 138.847656 C 157.757812 149.339844 149.285156 157.988281 138.753906 157.988281 Z M 122.304688 255.152344 L 122.304688 162.675781 L 155.453125 162.675781 L 155.453125 255.152344 Z M 187.433594 51.867188 C 112.5625 51.867188 51.863281 112.5625 51.863281 187.433594 C 51.863281 262.304688 112.5625 323 187.433594 323 C 262.304688 323 323.003906 262.304688 323.003906 187.433594 C 323.003906 112.5625 262.304688 51.867188 187.433594 51.867188 Z M 187.433594 51.867188 " fill-opacity="1" fill-rule="nonzero"/></g></svg>