<svg xmlns="http://www.w3.org/2000/svg" xmlns:xlink="http://www.w3.org/1999/xlink" width="500" zoomAndPan="magnify" viewBox="0 0 375 374.999991" height="500" preserveAspectRatio="xMidYMid meet" version="1.0"><defs><g/><clipPath id="ca229e8d30"><path d="M 99.9375 64.003906 L 283.6875 64.003906 L 283.6875 247.753906 L 99.9375 247.753906 Z M 99.9375 64.003906 " clip-rule="nonzero"/></clipPath><clipPath id="04d4a038f4"><path d="M 101.828125 147.738281 L 281.828125 147.738281 L 281.828125 164.238281 L 101.828125 164.238281 Z M 101.828125 147.738281 " clip-rule="nonzero"/></clipPath></defs><g clip-path="url(#ca229e8d30)"><path fill="#4d3515" d="M 191.8125 64.003906 C 141.074219 64.003906 99.9375 105.136719 99.9375 155.878906 C 99.9375 206.621094 141.074219 247.753906 191.8125 247.753906 C 242.554688 247.753906 283.6875 206.621094 283.6875 155.878906 C 283.6875 105.136719 242.554688 64.003906 191.8125 64.003906 " fill-opacity="1" fill-rule="nonzero"/></g><g fill="#a68a64" fill-opacity="1"><g transform="translate(124.70903, 202.217077)"><g><path d="M 6.03125 0 L 6.03125 -1.40625 L 9.828125 -1.40625 C 13.472656 -1.40625 16.019531 -2.175781 17.46875 -3.71875 C 18.925781 -5.257812 19.65625 -8.1875 19.65625 -12.5 L 19.65625 -88.015625 C 19.65625 -92.128906 18.925781 -94.957031 17.46875 -96.5 C 16.019531 -98.050781 13.472656 -98.828125 9.828125 -98.828125 L 6.03125 -98.828125 L 6.03125 -100.234375 L 72.71875 -100.234375 L 73.5625 -76.359375 L 72.15625 -76.359375 L 71.734375 -84.359375 C 71.453125 -89.878906 70.328125 -93.671875 68.359375 -95.734375 C 66.398438 -97.796875 62.65625 -98.828125 57.125 -98.828125 L 29.203125 -98.828125 L 29.203125 -53.203125 L 64.015625 -53.203125 L 64.015625 -51.796875 L 29.203125 -51.796875 L 29.203125 -1.40625 L 61.203125 -1.40625 C 67.003906 -1.40625 70.929688 -2.429688 72.984375 -4.484375 C 75.046875 -6.546875 76.21875 -10.335938 76.5 -15.859375 L 76.921875 -23.859375 L 78.328125 -23.859375 L 77.34375 0 Z M 6.03125 0 "/></g></g></g><g fill="#a68a64" fill-opacity="1"><g transform="translate(209.771517, 202.217077)"><g><path d="M 0.5625 33.6875 L 0.5625 32.28125 L 1.828125 32.28125 C 8.566406 32.28125 13.429688 30.222656 16.421875 26.109375 C 19.421875 21.992188 20.921875 14.832031 20.921875 4.625 L 20.921875 -88.015625 C 20.921875 -92.128906 20.191406 -94.957031 18.734375 -96.5 C 17.285156 -98.050781 14.738281 -98.828125 11.09375 -98.828125 L 7.4375 -98.828125 L 7.4375 -100.234375 L 44.078125 -100.234375 L 44.078125 -98.828125 L 40.28125 -98.828125 C 36.632812 -98.828125 34.085938 -98.050781 32.640625 -96.5 C 31.191406 -94.957031 30.46875 -92.035156 30.46875 -87.734375 L 30.46875 1.6875 C 30.46875 13.570312 28.007812 21.875 23.09375 26.59375 C 18.175781 31.320312 11.179688 33.6875 2.109375 33.6875 Z M 0.5625 33.6875 "/></g></g></g><g clip-path="url(#04d4a038f4)"><path fill="#4d3515" d="M 101.839844 147.738281 L 281.816406 147.738281 L 281.816406 164.238281 L 101.839844 164.238281 L 101.839844 147.738281 " fill-opacity="1" fill-rule="nonzero"/></g><g fill="#0c5b2d" fill-opacity="1"><g transform="translate(78.425557, 161.634671)"><g><path d="M 0.53125 0 L 0.53125 -0.125 L 0.875 -0.125 C 1.1875 -0.125 1.40625 -0.191406 1.53125 -0.328125 C 1.664062 -0.460938 1.734375 -0.722656 1.734375 -1.109375 L 1.734375 -7.765625 C 1.734375 -8.128906 1.664062 -8.378906 1.53125 -8.515625 C 1.40625 -8.648438 1.1875 -8.71875 0.875 -8.71875 L 0.53125 -8.71875 L 0.53125 -8.84375 L 6.4375 -8.84375 L 6.5 -6.734375 L 6.375 -6.734375 L 6.34375 -7.453125 C 6.320312 -7.929688 6.222656 -8.257812 6.046875 -8.4375 C 5.867188 -8.625 5.539062 -8.71875 5.0625 -8.71875 L 2.578125 -8.71875 L 2.578125 -4.40625 L 5.65625 -4.40625 L 5.65625 -4.28125 L 2.578125 -4.28125 L 2.578125 -1.109375 C 2.578125 -0.722656 2.640625 -0.460938 2.765625 -0.328125 C 2.898438 -0.191406 3.125 -0.125 3.4375 -0.125 L 3.921875 -0.125 L 3.921875 0 Z M 0.53125 0 "/></g></g></g><g fill="#0c5b2d" fill-opacity="1"><g transform="translate(90.157652, 161.634671)"><g><path d="M 0.53125 0 L 0.53125 -0.125 L 0.875 -0.125 C 1.1875 -0.125 1.40625 -0.191406 1.53125 -0.328125 C 1.664062 -0.460938 1.734375 -0.722656 1.734375 -1.109375 L 1.734375 -7.765625 C 1.734375 -8.128906 1.664062 -8.378906 1.53125 -8.515625 C 1.40625 -8.648438 1.1875 -8.71875 0.875 -8.71875 L 0.53125 -8.71875 L 0.53125 -8.84375 L 3.5 -8.84375 C 4.550781 -8.84375 5.320312 -8.65625 5.8125 -8.28125 C 6.300781 -7.914062 6.546875 -7.34375 6.546875 -6.5625 C 6.546875 -6.082031 6.453125 -5.679688 6.265625 -5.359375 C 6.085938 -5.035156 5.847656 -4.78125 5.546875 -4.59375 C 5.253906 -4.40625 4.929688 -4.265625 4.578125 -4.171875 L 6.5 -1.28125 C 6.800781 -0.8125 7.039062 -0.5 7.21875 -0.34375 C 7.394531 -0.195312 7.578125 -0.125 7.765625 -0.125 L 7.859375 -0.125 L 7.859375 0 L 7.734375 0 C 7.304688 0 6.972656 -0.0234375 6.734375 -0.078125 C 6.492188 -0.140625 6.289062 -0.25 6.125 -0.40625 C 5.96875 -0.570312 5.796875 -0.804688 5.609375 -1.109375 L 3.6875 -4.09375 L 2.578125 -4.09375 L 2.578125 -1.109375 C 2.578125 -0.722656 2.640625 -0.460938 2.765625 -0.328125 C 2.898438 -0.191406 3.125 -0.125 3.4375 -0.125 L 3.765625 -0.125 L 3.765625 0 Z M 2.578125 -4.21875 L 3.625 -4.21875 C 4.289062 -4.21875 4.796875 -4.398438 5.140625 -4.765625 C 5.492188 -5.140625 5.671875 -5.71875 5.671875 -6.5 C 5.671875 -7.269531 5.515625 -7.832031 5.203125 -8.1875 C 4.890625 -8.539062 4.332031 -8.71875 3.53125 -8.71875 L 2.578125 -8.71875 Z M 2.578125 -4.21875 "/></g></g></g><g fill="#0c5b2d" fill-opacity="1"><g transform="translate(102.571013, 161.634671)"><g><path d="M 4.4375 0.125 C 3.601562 0.125 2.910156 -0.0546875 2.359375 -0.421875 C 1.804688 -0.796875 1.390625 -1.320312 1.109375 -2 C 0.835938 -2.6875 0.703125 -3.503906 0.703125 -4.453125 C 0.703125 -5.378906 0.835938 -6.179688 1.109375 -6.859375 C 1.390625 -7.535156 1.804688 -8.054688 2.359375 -8.421875 C 2.921875 -8.796875 3.617188 -8.984375 4.453125 -8.984375 C 5.691406 -8.984375 6.617188 -8.578125 7.234375 -7.765625 C 7.859375 -6.953125 8.171875 -5.84375 8.171875 -4.4375 C 8.171875 -3.519531 8.03125 -2.71875 7.75 -2.03125 C 7.476562 -1.351562 7.066406 -0.820312 6.515625 -0.4375 C 5.960938 -0.0625 5.269531 0.125 4.4375 0.125 Z M 4.4375 0 C 5.425781 0 6.140625 -0.363281 6.578125 -1.09375 C 7.023438 -1.820312 7.25 -2.9375 7.25 -4.4375 C 7.25 -5.925781 7.03125 -7.035156 6.59375 -7.765625 C 6.164062 -8.492188 5.453125 -8.859375 4.453125 -8.859375 C 3.484375 -8.859375 2.765625 -8.492188 2.296875 -7.765625 C 1.835938 -7.035156 1.609375 -5.925781 1.609375 -4.4375 C 1.609375 -2.9375 1.835938 -1.820312 2.296875 -1.09375 C 2.765625 -0.363281 3.476562 0 4.4375 0 Z M 4.4375 0 "/></g></g></g><g fill="#0c5b2d" fill-opacity="1"><g transform="translate(116.099191, 161.634671)"><g><path d="M 0.53125 0 L 0.53125 -0.125 L 0.984375 -0.125 C 1.304688 -0.125 1.53125 -0.191406 1.65625 -0.328125 C 1.78125 -0.460938 1.84375 -0.722656 1.84375 -1.109375 L 1.84375 -7.765625 C 1.84375 -8.128906 1.78125 -8.378906 1.65625 -8.515625 C 1.53125 -8.648438 1.304688 -8.71875 0.984375 -8.71875 L 0.53125 -8.71875 L 0.53125 -8.84375 L 2.453125 -8.84375 L 7.421875 -1.28125 L 7.421875 -7.75 C 7.421875 -8.125 7.359375 -8.378906 7.234375 -8.515625 C 7.109375 -8.648438 6.878906 -8.71875 6.546875 -8.71875 L 6.140625 -8.71875 L 6.140625 -8.84375 L 8.84375 -8.84375 L 8.84375 -8.71875 L 8.421875 -8.71875 C 8.097656 -8.71875 7.867188 -8.648438 7.734375 -8.515625 C 7.609375 -8.378906 7.546875 -8.125 7.546875 -7.75 L 7.546875 0 L 7.296875 0 L 1.96875 -8.078125 L 1.96875 -1.109375 C 1.96875 -0.722656 2.03125 -0.460938 2.15625 -0.328125 C 2.28125 -0.191406 2.507812 -0.125 2.84375 -0.125 L 3.265625 -0.125 L 3.265625 0 Z M 0.53125 0 "/></g></g></g><g fill="#0c5b2d" fill-opacity="1"><g transform="translate(130.01136, 161.634671)"><g><path d="M 1.890625 0 L 1.890625 -0.125 L 2.34375 -0.125 C 2.675781 -0.125 2.90625 -0.191406 3.03125 -0.328125 C 3.15625 -0.460938 3.21875 -0.722656 3.21875 -1.109375 L 3.21875 -8.703125 L 1.765625 -8.703125 C 1.285156 -8.703125 0.957031 -8.609375 0.78125 -8.421875 C 0.601562 -8.242188 0.5 -7.90625 0.46875 -7.40625 L 0.4375 -6.8125 L 0.3125 -6.8125 L 0.390625 -8.84375 L 6.90625 -8.84375 L 6.984375 -6.8125 L 6.859375 -6.8125 L 6.828125 -7.40625 C 6.804688 -7.90625 6.707031 -8.242188 6.53125 -8.421875 C 6.351562 -8.609375 6.019531 -8.703125 5.53125 -8.703125 L 4.046875 -8.703125 L 4.046875 -1.109375 C 4.046875 -0.722656 4.109375 -0.460938 4.234375 -0.328125 C 4.367188 -0.191406 4.601562 -0.125 4.9375 -0.125 L 5.375 -0.125 L 5.375 0 Z M 1.890625 0 "/></g></g></g><g fill="#0c5b2d" fill-opacity="1"><g transform="translate(141.966407, 161.634671)"><g><path d="M 0.3125 -3.265625 L 0.3125 -3.5 L 3.53125 -3.5 L 3.53125 -3.265625 Z M 0.3125 -3.265625 "/></g></g></g><g fill="#0c5b2d" fill-opacity="1"><g transform="translate(150.453151, 161.634671)"><g><path d="M 0.53125 0 L 0.53125 -0.125 L 0.875 -0.125 C 1.1875 -0.125 1.40625 -0.191406 1.53125 -0.328125 C 1.664062 -0.460938 1.734375 -0.722656 1.734375 -1.109375 L 1.734375 -7.765625 C 1.734375 -8.128906 1.664062 -8.378906 1.53125 -8.515625 C 1.40625 -8.648438 1.1875 -8.71875 0.875 -8.71875 L 0.53125 -8.71875 L 0.53125 -8.84375 L 6.421875 -8.84375 L 6.5 -6.734375 L 6.375 -6.734375 L 6.328125 -7.453125 C 6.304688 -7.929688 6.207031 -8.257812 6.03125 -8.4375 C 5.863281 -8.625 5.535156 -8.71875 5.046875 -8.71875 L 2.578125 -8.71875 L 2.578125 -4.703125 L 5.65625 -4.703125 L 5.65625 -4.578125 L 2.578125 -4.578125 L 2.578125 -0.125 L 5.40625 -0.125 C 5.914062 -0.125 6.257812 -0.210938 6.4375 -0.390625 C 6.625 -0.578125 6.726562 -0.914062 6.75 -1.40625 L 6.796875 -2.109375 L 6.90625 -2.109375 L 6.828125 0 Z M 0.53125 0 "/></g></g></g><g fill="#0c5b2d" fill-opacity="1"><g transform="translate(162.606386, 161.634671)"><g><path d="M 0.53125 0 L 0.53125 -0.125 L 0.984375 -0.125 C 1.304688 -0.125 1.53125 -0.191406 1.65625 -0.328125 C 1.78125 -0.460938 1.84375 -0.722656 1.84375 -1.109375 L 1.84375 -7.765625 C 1.84375 -8.128906 1.78125 -8.378906 1.65625 -8.515625 C 1.53125 -8.648438 1.304688 -8.71875 0.984375 -8.71875 L 0.53125 -8.71875 L 0.53125 -8.84375 L 2.453125 -8.84375 L 7.421875 -1.28125 L 7.421875 -7.75 C 7.421875 -8.125 7.359375 -8.378906 7.234375 -8.515625 C 7.109375 -8.648438 6.878906 -8.71875 6.546875 -8.71875 L 6.140625 -8.71875 L 6.140625 -8.84375 L 8.84375 -8.84375 L 8.84375 -8.71875 L 8.421875 -8.71875 C 8.097656 -8.71875 7.867188 -8.648438 7.734375 -8.515625 C 7.609375 -8.378906 7.546875 -8.125 7.546875 -7.75 L 7.546875 0 L 7.296875 0 L 1.96875 -8.078125 L 1.96875 -1.109375 C 1.96875 -0.722656 2.03125 -0.460938 2.15625 -0.328125 C 2.28125 -0.191406 2.507812 -0.125 2.84375 -0.125 L 3.265625 -0.125 L 3.265625 0 Z M 0.53125 0 "/></g></g></g><g fill="#0c5b2d" fill-opacity="1"><g transform="translate(176.518561, 161.634671)"><g><path d="M 0.53125 0 L 0.53125 -0.125 L 0.875 -0.125 C 1.1875 -0.125 1.40625 -0.191406 1.53125 -0.328125 C 1.664062 -0.460938 1.734375 -0.722656 1.734375 -1.109375 L 1.734375 -7.765625 C 1.734375 -8.128906 1.664062 -8.378906 1.53125 -8.515625 C 1.40625 -8.648438 1.1875 -8.71875 0.875 -8.71875 L 0.53125 -8.71875 L 0.53125 -8.84375 L 4.09375 -8.84375 C 5.351562 -8.84375 6.316406 -8.441406 6.984375 -7.640625 C 7.648438 -6.847656 7.984375 -5.75 7.984375 -4.34375 C 7.984375 -2.988281 7.664062 -1.925781 7.03125 -1.15625 C 6.394531 -0.382812 5.425781 0 4.125 0 Z M 2.578125 -0.125 L 3.890625 -0.125 C 5.015625 -0.125 5.828125 -0.460938 6.328125 -1.140625 C 6.835938 -1.816406 7.09375 -2.882812 7.09375 -4.34375 C 7.09375 -5.789062 6.835938 -6.878906 6.328125 -7.609375 C 5.828125 -8.347656 5.019531 -8.71875 3.90625 -8.71875 L 2.578125 -8.71875 Z M 2.578125 -0.125 "/></g></g></g><g fill="#0c5b2d" fill-opacity="1"><g transform="translate(189.885706, 161.634671)"><g/></g></g><g fill="#0c5b2d" fill-opacity="1"><g transform="translate(197.31957, 161.634671)"><g><path d="M 0.53125 0 L 0.53125 -0.125 L 0.875 -0.125 C 1.1875 -0.125 1.40625 -0.191406 1.53125 -0.328125 C 1.664062 -0.460938 1.734375 -0.722656 1.734375 -1.109375 L 1.734375 -7.765625 C 1.734375 -8.128906 1.664062 -8.378906 1.53125 -8.515625 C 1.40625 -8.648438 1.1875 -8.71875 0.875 -8.71875 L 0.53125 -8.71875 L 0.53125 -8.84375 L 4.09375 -8.84375 C 5.351562 -8.84375 6.316406 -8.441406 6.984375 -7.640625 C 7.648438 -6.847656 7.984375 -5.75 7.984375 -4.34375 C 7.984375 -2.988281 7.664062 -1.925781 7.03125 -1.15625 C 6.394531 -0.382812 5.425781 0 4.125 0 Z M 2.578125 -0.125 L 3.890625 -0.125 C 5.015625 -0.125 5.828125 -0.460938 6.328125 -1.140625 C 6.835938 -1.816406 7.09375 -2.882812 7.09375 -4.34375 C 7.09375 -5.789062 6.835938 -6.878906 6.328125 -7.609375 C 5.828125 -8.347656 5.019531 -8.71875 3.90625 -8.71875 L 2.578125 -8.71875 Z M 2.578125 -0.125 "/></g></g></g><g fill="#0c5b2d" fill-opacity="1"><g transform="translate(210.686715, 161.634671)"><g><path d="M 0.53125 0 L 0.53125 -0.125 L 0.875 -0.125 C 1.1875 -0.125 1.40625 -0.191406 1.53125 -0.328125 C 1.664062 -0.460938 1.734375 -0.722656 1.734375 -1.109375 L 1.734375 -7.765625 C 1.734375 -8.128906 1.664062 -8.378906 1.53125 -8.515625 C 1.40625 -8.648438 1.1875 -8.71875 0.875 -8.71875 L 0.53125 -8.71875 L 0.53125 -8.84375 L 6.421875 -8.84375 L 6.5 -6.734375 L 6.375 -6.734375 L 6.328125 -7.453125 C 6.304688 -7.929688 6.207031 -8.257812 6.03125 -8.4375 C 5.863281 -8.625 5.535156 -8.71875 5.046875 -8.71875 L 2.578125 -8.71875 L 2.578125 -4.703125 L 5.65625 -4.703125 L 5.65625 -4.578125 L 2.578125 -4.578125 L 2.578125 -0.125 L 5.40625 -0.125 C 5.914062 -0.125 6.257812 -0.210938 6.4375 -0.390625 C 6.625 -0.578125 6.726562 -0.914062 6.75 -1.40625 L 6.796875 -2.109375 L 6.90625 -2.109375 L 6.828125 0 Z M 0.53125 0 "/></g></g></g><g fill="#0c5b2d" fill-opacity="1"><g transform="translate(222.839951, 161.634671)"><g><path d="M 3.859375 0 L 1.015625 -8.09375 C 0.929688 -8.34375 0.832031 -8.507812 0.71875 -8.59375 C 0.613281 -8.675781 0.425781 -8.71875 0.15625 -8.71875 L 0 -8.71875 L 0 -8.84375 L 3.078125 -8.84375 L 3.078125 -8.71875 L 2.609375 -8.71875 C 2.328125 -8.71875 2.132812 -8.6875 2.03125 -8.625 C 1.9375 -8.5625 1.890625 -8.457031 1.890625 -8.3125 C 1.890625 -8.207031 1.914062 -8.066406 1.96875 -7.890625 C 2.019531 -7.710938 2.066406 -7.5625 2.109375 -7.4375 L 3.609375 -3.140625 C 3.765625 -2.660156 3.898438 -2.234375 4.015625 -1.859375 C 4.140625 -1.492188 4.25 -1.144531 4.34375 -0.8125 C 4.457031 -1.164062 4.570312 -1.523438 4.6875 -1.890625 C 4.8125 -2.265625 4.953125 -2.679688 5.109375 -3.140625 L 6.515625 -7.390625 C 6.546875 -7.515625 6.585938 -7.664062 6.640625 -7.84375 C 6.703125 -8.019531 6.734375 -8.164062 6.734375 -8.28125 C 6.734375 -8.445312 6.679688 -8.5625 6.578125 -8.625 C 6.484375 -8.6875 6.285156 -8.71875 5.984375 -8.71875 L 5.328125 -8.71875 L 5.328125 -8.84375 L 8.09375 -8.84375 L 8.09375 -8.71875 L 7.71875 -8.71875 C 7.457031 -8.71875 7.273438 -8.664062 7.171875 -8.5625 C 7.066406 -8.457031 6.960938 -8.25 6.859375 -7.9375 L 4.203125 0 Z M 3.859375 0 "/></g></g></g><g fill="#0c5b2d" fill-opacity="1"><g transform="translate(235.674464, 161.634671)"><g><path d="M 0.53125 0 L 0.53125 -0.125 L 0.875 -0.125 C 1.1875 -0.125 1.40625 -0.191406 1.53125 -0.328125 C 1.664062 -0.460938 1.734375 -0.722656 1.734375 -1.109375 L 1.734375 -7.765625 C 1.734375 -8.128906 1.664062 -8.378906 1.53125 -8.515625 C 1.40625 -8.648438 1.1875 -8.71875 0.875 -8.71875 L 0.53125 -8.71875 L 0.53125 -8.84375 L 6.421875 -8.84375 L 6.5 -6.734375 L 6.375 -6.734375 L 6.328125 -7.453125 C 6.304688 -7.929688 6.207031 -8.257812 6.03125 -8.4375 C 5.863281 -8.625 5.535156 -8.71875 5.046875 -8.71875 L 2.578125 -8.71875 L 2.578125 -4.703125 L 5.65625 -4.703125 L 5.65625 -4.578125 L 2.578125 -4.578125 L 2.578125 -0.125 L 5.40625 -0.125 C 5.914062 -0.125 6.257812 -0.210938 6.4375 -0.390625 C 6.625 -0.578125 6.726562 -0.914062 6.75 -1.40625 L 6.796875 -2.109375 L 6.90625 -2.109375 L 6.828125 0 Z M 0.53125 0 "/></g></g></g><g fill="#0c5b2d" fill-opacity="1"><g transform="translate(247.8277, 161.634671)"><g><path d="M 0.53125 0 L 0.53125 -0.125 L 0.875 -0.125 C 1.1875 -0.125 1.40625 -0.191406 1.53125 -0.328125 C 1.664062 -0.460938 1.734375 -0.722656 1.734375 -1.109375 L 1.734375 -7.765625 C 1.734375 -8.128906 1.664062 -8.378906 1.53125 -8.515625 C 1.40625 -8.648438 1.1875 -8.71875 0.875 -8.71875 L 0.53125 -8.71875 L 0.53125 -8.84375 L 3.765625 -8.84375 L 3.765625 -8.71875 L 3.4375 -8.71875 C 3.125 -8.71875 2.898438 -8.648438 2.765625 -8.515625 C 2.640625 -8.378906 2.578125 -8.125 2.578125 -7.75 L 2.578125 -0.125 L 5.40625 -0.125 C 5.726562 -0.125 5.984375 -0.164062 6.171875 -0.25 C 6.367188 -0.34375 6.507812 -0.503906 6.59375 -0.734375 C 6.675781 -0.960938 6.726562 -1.273438 6.75 -1.671875 L 6.796875 -2.609375 L 6.90625 -2.609375 L 6.828125 0 Z M 0.53125 0 "/></g></g></g><g fill="#0c5b2d" fill-opacity="1"><g transform="translate(259.968553, 161.634671)"><g><path d="M 4.4375 0.125 C 3.601562 0.125 2.910156 -0.0546875 2.359375 -0.421875 C 1.804688 -0.796875 1.390625 -1.320312 1.109375 -2 C 0.835938 -2.6875 0.703125 -3.503906 0.703125 -4.453125 C 0.703125 -5.378906 0.835938 -6.179688 1.109375 -6.859375 C 1.390625 -7.535156 1.804688 -8.054688 2.359375 -8.421875 C 2.921875 -8.796875 3.617188 -8.984375 4.453125 -8.984375 C 5.691406 -8.984375 6.617188 -8.578125 7.234375 -7.765625 C 7.859375 -6.953125 8.171875 -5.84375 8.171875 -4.4375 C 8.171875 -3.519531 8.03125 -2.71875 7.75 -2.03125 C 7.476562 -1.351562 7.066406 -0.820312 6.515625 -0.4375 C 5.960938 -0.0625 5.269531 0.125 4.4375 0.125 Z M 4.4375 0 C 5.425781 0 6.140625 -0.363281 6.578125 -1.09375 C 7.023438 -1.820312 7.25 -2.9375 7.25 -4.4375 C 7.25 -5.925781 7.03125 -7.035156 6.59375 -7.765625 C 6.164062 -8.492188 5.453125 -8.859375 4.453125 -8.859375 C 3.484375 -8.859375 2.765625 -8.492188 2.296875 -7.765625 C 1.835938 -7.035156 1.609375 -5.925781 1.609375 -4.4375 C 1.609375 -2.9375 1.835938 -1.820312 2.296875 -1.09375 C 2.765625 -0.363281 3.476562 0 4.4375 0 Z M 4.4375 0 "/></g></g></g><g fill="#0c5b2d" fill-opacity="1"><g transform="translate(273.496728, 161.634671)"><g><path d="M 0.53125 0 L 0.53125 -0.125 L 0.875 -0.125 C 1.1875 -0.125 1.40625 -0.191406 1.53125 -0.328125 C 1.664062 -0.460938 1.734375 -0.722656 1.734375 -1.109375 L 1.734375 -7.765625 C 1.734375 -8.128906 1.664062 -8.378906 1.53125 -8.515625 C 1.40625 -8.648438 1.1875 -8.71875 0.875 -8.71875 L 0.53125 -8.71875 L 0.53125 -8.84375 L 3.84375 -8.84375 C 4.832031 -8.84375 5.550781 -8.613281 6 -8.15625 C 6.457031 -7.707031 6.6875 -7.082031 6.6875 -6.28125 C 6.6875 -5.78125 6.585938 -5.320312 6.390625 -4.90625 C 6.191406 -4.488281 5.863281 -4.148438 5.40625 -3.890625 C 4.957031 -3.640625 4.34375 -3.515625 3.5625 -3.515625 L 2.578125 -3.515625 L 2.578125 -1.109375 C 2.578125 -0.722656 2.640625 -0.460938 2.765625 -0.328125 C 2.898438 -0.191406 3.125 -0.125 3.4375 -0.125 L 3.875 -0.125 L 3.875 0 Z M 2.578125 -3.640625 L 3.5 -3.640625 C 4.363281 -3.640625 4.960938 -3.867188 5.296875 -4.328125 C 5.640625 -4.785156 5.8125 -5.425781 5.8125 -6.25 C 5.8125 -7.101562 5.648438 -7.726562 5.328125 -8.125 C 5.003906 -8.519531 4.472656 -8.71875 3.734375 -8.71875 L 2.578125 -8.71875 Z M 2.578125 -3.640625 "/></g></g></g><g fill="#0c5b2d" fill-opacity="1"><g transform="translate(285.389839, 161.634671)"><g><path d="M 0.53125 0 L 0.53125 -0.125 L 0.875 -0.125 C 1.1875 -0.125 1.40625 -0.191406 1.53125 -0.328125 C 1.664062 -0.460938 1.734375 -0.722656 1.734375 -1.109375 L 1.734375 -7.765625 C 1.734375 -8.128906 1.664062 -8.378906 1.53125 -8.515625 C 1.40625 -8.648438 1.1875 -8.71875 0.875 -8.71875 L 0.53125 -8.71875 L 0.53125 -8.84375 L 6.421875 -8.84375 L 6.5 -6.734375 L 6.375 -6.734375 L 6.328125 -7.453125 C 6.304688 -7.929688 6.207031 -8.257812 6.03125 -8.4375 C 5.863281 -8.625 5.535156 -8.71875 5.046875 -8.71875 L 2.578125 -8.71875 L 2.578125 -4.703125 L 5.65625 -4.703125 L 5.65625 -4.578125 L 2.578125 -4.578125 L 2.578125 -0.125 L 5.40625 -0.125 C 5.914062 -0.125 6.257812 -0.210938 6.4375 -0.390625 C 6.625 -0.578125 6.726562 -0.914062 6.75 -1.40625 L 6.796875 -2.109375 L 6.90625 -2.109375 L 6.828125 0 Z M 0.53125 0 "/></g></g></g><g fill="#0c5b2d" fill-opacity="1"><g transform="translate(297.543075, 161.634671)"><g><path d="M 0.53125 0 L 0.53125 -0.125 L 0.875 -0.125 C 1.1875 -0.125 1.40625 -0.191406 1.53125 -0.328125 C 1.664062 -0.460938 1.734375 -0.722656 1.734375 -1.109375 L 1.734375 -7.765625 C 1.734375 -8.128906 1.664062 -8.378906 1.53125 -8.515625 C 1.40625 -8.648438 1.1875 -8.71875 0.875 -8.71875 L 0.53125 -8.71875 L 0.53125 -8.84375 L 3.5 -8.84375 C 4.550781 -8.84375 5.320312 -8.65625 5.8125 -8.28125 C 6.300781 -7.914062 6.546875 -7.34375 6.546875 -6.5625 C 6.546875 -6.082031 6.453125 -5.679688 6.265625 -5.359375 C 6.085938 -5.035156 5.847656 -4.78125 5.546875 -4.59375 C 5.253906 -4.40625 4.929688 -4.265625 4.578125 -4.171875 L 6.5 -1.28125 C 6.800781 -0.8125 7.039062 -0.5 7.21875 -0.34375 C 7.394531 -0.195312 7.578125 -0.125 7.765625 -0.125 L 7.859375 -0.125 L 7.859375 0 L 7.734375 0 C 7.304688 0 6.972656 -0.0234375 6.734375 -0.078125 C 6.492188 -0.140625 6.289062 -0.25 6.125 -0.40625 C 5.96875 -0.570312 5.796875 -0.804688 5.609375 -1.109375 L 3.6875 -4.09375 L 2.578125 -4.09375 L 2.578125 -1.109375 C 2.578125 -0.722656 2.640625 -0.460938 2.765625 -0.328125 C 2.898438 -0.191406 3.125 -0.125 3.4375 -0.125 L 3.765625 -0.125 L 3.765625 0 Z M 2.578125 -4.21875 L 3.625 -4.21875 C 4.289062 -4.21875 4.796875 -4.398438 5.140625 -4.765625 C 5.492188 -5.140625 5.671875 -5.71875 5.671875 -6.5 C 5.671875 -7.269531 5.515625 -7.832031 5.203125 -8.1875 C 4.890625 -8.539062 4.332031 -8.71875 3.53125 -8.71875 L 2.578125 -8.71875 Z M 2.578125 -4.21875 "/></g></g></g></svg>